Genre:Comedy | Family | Musical | Romance
Language:English  http://www.imdb.com/title/tt1252380/

General
Complete name :Camp Rock 2 The Final Jam.2010.DvDscr.Xvid.FEEL-FREE
Format : AVI
Format/Info : Audio Video Interleave
File size : 1.44 GiB
Duration : 1h 44mn
Overall bit rate : 1 983 Kbps
Writing library : VirtualDub build 32817/release
Video #0
ID : 0
Format : MPEG-4 Visual
Format profile : AdvancedSimple@L5
Format settings, BVOP : Yes
Format settings, QPel : No
Format settings, GMC : No warppoints
Format settings, Matrix : Default (H.263)
Muxing mode : Packed bitstream
Codec ID : XVID
Codec ID/Hint : XviD
Duration : 1h 44mn
Bit rate : 1 589 Kbps
Width : 688 pixels
Height : 288 pixels
Display aspect ratio : 2.35:1
Frame rate : 23.976 fps
Resolution : 24 bits
Colorimetry : 4:2:0
Scan type : Progressive
Bits/(Pixel*Frame) : 0.335
Stream size : 1.16 GiB (80%)
Writing library : XviD 1.3.0.dev55
Audio #1
ID : 1
Format : AC-3
Format/Info : Audio Coding 3
Codec ID : 2000
Duration : 1h 44mn
Bit rate mode : Constant
Bit rate : 384 Kbps
Channel(s) : 6 channels
Channel positions : Front: L C R, Surround: L R, LFE
Sampling rate : 48.0 KHz
Stream size : 286 MiB (19%)
Alignment : Split accross interleaves
Interleave, duration : 42 ms (1.00 video frame)
Interleave, preload duration : 500 ms
 
http://www.starshare.ro/bitbucket/Camp%20Rock%202%20The%20Final%20Jam.2010.DvDrip.Xvid.FEEL-FREE.avi_thumbs_%5B2010.08.26_04.51.17%5D.jpg
 
http://www.starshare.ro/bitbucket/Camp%20Rock%202%20The%20Final%20Jam.2010.DvDrip.Xvid.FEEL-FREE3.jpg
 
http://www.starshare.ro/bitbucket/Camp%20Rock%202%20The%20Final%20Jam.2010.DvDrip.Xvid.FEEL-FREE2.jpg
 
http://www.starshare.ro/bitbucket/Camp%20Rock%202%20The%20Final%20Jam.2010.DvDrip.Xvid.FEEL-FREE1.jpg

Plot
Mitchie Torres (Demi Lovato) cannot wait to return to Camp Rock so that she and rock stars Shane Gray (Joe Jonas), Nate (Nick Jonas) and Jason (Kevin Jonas) can spend the summer making music and having fun with their friends. When they arrive, however, she discovers that Camp Star, a slick new camp across the lake, has lured many campers and instructors away, threatening the very existence of Camp Rock. Tess Tyler (Meaghan Jette Martin), the diva of Camp Rock, returns, but soon ditches the camp for Camp Star. Meanwhile, Nate and a girl from Camp Star, Dana Turner (Chloe Bridges), fall in love, and struggle to be together as their own camps fight. To make matters even more difficult, Camp Rock challenges Camp Star to a musical showdown to decide which is the better camp and has the right to remain open. Shane and Mitchie kiss.